<?xml version="1.0" standalone="no"?><!DOCTYPE svg PUBLIC "-//W3C//DTD SVG 1.1//EN" "http://www.w3.org/Graphics/SVG/1.1/DTD/svg11.dtd"><svg t="1782702587045" class="icon" viewBox="0 0 1024 1024" version="1.1" xmlns="http://www.w3.org/2000/svg" p-id="3991" xmlns:xlink="http://www.w3.org/1999/xlink" width="200" height="200"><path d="M261.167244 0c35.607273 0 48.64 17.687273 52.968727 27.927273 40.773818 71.912727 91.322182 196.794182 91.694545 241.617454v3.165091l-1.163636 3.165091c-9.122909 23.552-29.277091 35.002182-47.010909 44.776727-23.319273 12.939636-36.770909 21.597091-38.353455 46.359273v1.582546c0.651636 10.100364 11.822545 47.290182 109.428364 166.167272l44.264727 52.642909c103.563636 121.111273 136.378182 134.423273 143.918546 135.261091 24.808727 3.444364 36.724364-7.493818 54.877091-27.182545 13.870545-14.941091 29.323636-31.837091 54.923636-35.328l3.211636-0.418909 3.211637 0.837818c45.009455 9.448727 160.721455 83.269818 226.350545 137.867636 9.495273 6.330182 26.065455 24.715636 13.032727 65.629091C952.041425 928.907636 862.348335 1024 780.940335 1024h-5.585455c-124.090182-6.237091-291.979636-121.856-448.465455-309.620364l-58.181818-69.166545C112.221789 457.774545 30.022516 274.664727 49.013062 155.275636 62.464698 71.121455 188.882153 0 261.260335 0z m486.539636 91.136l207.872 13.405091a20.014545 20.014545 0 0 1 18.990545 21.178182l-13.498181 209.035636a19.828364 19.828364 0 0 1-34.722909 11.822546l-45.893819-51.851637a14.149818 14.149818 0 0 0-19.688727-1.163636l-219.415273 192.139636a22.062545 22.062545 0 0 1-31.185454-2.373818L552.774516 418.443636a22.248727 22.248727 0 0 1 2.048-31.418181l219.275637-191.767273a14.056727 14.056727 0 0 0 1.210182-19.595637l-44.683637-50.362181a20.759273 20.759273 0 0 1 17.035637-34.164364z" p-id="3992"></path></svg>