<?xml version="1.0" standalone="no"?><!DOCTYPE svg PUBLIC "-//W3C//DTD SVG 1.1//EN" "http://www.w3.org/Graphics/SVG/1.1/DTD/svg11.dtd"><svg t="1782702570314" class="icon" viewBox="0 0 1024 1024" version="1.1" xmlns="http://www.w3.org/2000/svg" p-id="3831" xmlns:xlink="http://www.w3.org/1999/xlink" width="200" height="200"><path d="M219.501486 21.26963c50.21734 50.378984 100.326918 100.919612 150.113208 151.837409 27.156158 27.856615 28.018259 67.620989 1.616438 96.231942-24.785383 26.832871-51.079441 52.372591-76.834686 78.451124-2.263013 2.155251-5.226483 3.771689-8.136071 5.926939 3.879451 7.758902 7.705021 15.679449 11.746116 23.438351a796.634526 796.634526 0 0 0 113.904997 166.816402 697.169708 697.169708 0 0 0 166.816402 136.58901c18.858443 11.099541 37.932412 21.983557 56.952498 32.975335 6.465752 3.771689 9.37534 3.125113 15.517805-3.232876l69.506834-70.692221c11.47671-11.638354 24.515976-20.636525 40.626475-24.24657 25.809127-5.873058 47.846565 2.155251 66.058433 20.474881 44.990858 45.260264 89.76619 90.843815 134.595403 136.319604 7.004565 7.112327 14.332417 14.170773 20.205475 22.252963 20.205475 27.694971 18.750681 58.946106-4.579907 87.018246-21.983557 26.401821-47.253871 49.570765-77.481262 66.489483a231.312277 231.312277 0 0 1-92.406372 28.179902c-34.861179 3.340639-68.968021-2.370776-102.589931-9.914153-87.826464-19.397256-167.301333-57.922362-241.172549-108.462989a1230.702009 1230.702009 0 0 1-132.278509-105.715045 1264.054513 1264.054513 0 0 1-119.077599-121.771663C165.189169 574.360831 120.629362 516.438469 84.906082 452.212a449.639169 449.639169 0 0 1-51.618253-145.210014 403.30128 403.30128 0 0 1-4.364383-111.857509C36.951755 124.991068 67.233027 66.637656 121.491462 20.83858 132.48324 11.571002 144.067713 3.488812 158.885061 1.333561c23.546113-3.448401 44.020995 3.286757 60.616425 19.936069z m575.451926-17.673055a46.661177 46.661177 0 0 1 6.950684 5.926939c30.820084 31.03561 61.424644 61.909575 92.083084 92.999066 9.105934 9.159815 9.590865 17.942462 1.616438 28.126021-1.831963 2.424657-4.041095 4.68767-6.088583 6.842921l-181.795393 183.465712-3.610045 3.771689c4.472145 4.310501 8.94429 8.51324 13.147029 12.877623 13.955248 14.224654 27.856615 28.449309 41.596338 42.835607a37.231955 37.231955 0 0 1 5.926939 8.243833c5.980821 11.207303 1.616438 21.175338-10.776253 24.24657-6.088583 1.508675-12.392691 2.263013-18.589037 3.125114-42.835607 5.765296-85.50957 11.746116-128.345177 17.242005-33.352504 4.418264-66.81277 8.297715-100.219156 12.231048a186.052013 186.052013 0 0 1-17.295886 0.969862c-15.30228 0.323288-25.863008-10.075797-25.162552-25.647482 0.592694-14.547942 1.939726-29.203646 3.232876-43.80547 2.155251-23.923282 4.472145-47.684921 6.735158-71.662085 2.263013-23.977164 4.579908-48.008208 6.735159-72.093134 1.831963-20.582644 3.610045-41.003644 5.54977-61.586288 0.538813-5.388127 1.185388-10.830135 1.939726-16.16438a19.98995 19.98995 0 0 1 1.29315-4.903195c6.034702-15.625567 15.894974-18.157987 27.856615-6.519633 17.511412 17.188124 34.645654 34.699536 51.941541 52.103184 2.209132 2.370776 4.579908 4.526026 8.243834 8.028309 3.556164-4.148858 6.627396-8.08219 10.075796-11.638353L765.372597 13.18744c3.502282-3.502282 7.22009-6.842921 11.153422-9.698628 5.980821-4.364383 12.33881-4.310501 18.427393 0.107763z" p-id="3832"></path></svg>