<?xml version="1.0" standalone="no"?><!DOCTYPE svg PUBLIC "-//W3C//DTD SVG 1.1//EN" "http://www.w3.org/Graphics/SVG/1.1/DTD/svg11.dtd"><svg t="1782702346224" class="icon" viewBox="0 0 1024 1024" version="1.1" xmlns="http://www.w3.org/2000/svg" p-id="3511" xmlns:xlink="http://www.w3.org/1999/xlink" width="200" height="200"><path d="M66.1504 62.1056C123.2384 4.4032 192.6144-46.1824 287.9488 72.192 405.8624 218.4704 348.0064 259.2768 281.6 325.7344c-46.6432 46.08 50.3808 163.4816 151.7056 264.8064 101.7856 101.2736 218.624 197.7856 265.3696 151.6544l18.3808-18.5856 8.8576-8.8576c52.9408-51.968 100.864-80.0768 226.2528 20.992 112.128 90.368 72.6016 157.3888 19.0464 212.736l-9.0112 9.1136c-13.6704 13.5168-27.6992 26.368-40.0384 38.656-74.5472 73.984-351.0784 3.7888-624.4864-269.568C24.2176 453.2736-46.5408 176.64 27.4432 102.144c9.5744-9.5744 19.456-20.224 29.7472-30.8736zM941.568 0c32.0512 0 58.112 26.0096 58.112 58.0608v348.7744a58.1632 58.1632 0 0 1-116.224 0V58.0608C883.456 26.0096 909.5168 0 941.568 0z m-290.56 0c32.0512 0 58.0608 26.0096 58.0608 58.0608v348.7744a58.112 58.112 0 1 1-116.224 0V58.0608c0-32.0512 26.112-58.0608 58.1632-58.0608z" p-id="3512"></path></svg>