<?xml version="1.0" standalone="no"?><!DOCTYPE svg PUBLIC "-//W3C//DTD SVG 1.1//EN"
        "http://www.w3.org/Graphics/SVG/1.1/DTD/svg11.dtd">
<svg t="1782496516248" class="icon" viewBox="0 0 1024 1024" version="1.1" xmlns="http://www.w3.org/2000/svg"
     p-id="10464" xmlns:xlink="http://www.w3.org/1999/xlink" width="200" height="200">
    <path d="M28.13952 204.30848c0-15.9744 6.656-31.80544 17.83808-43.1104A61.60384 61.60384 0 0 1 89.088 143.36c15.95392 0 31.78496 6.53312 43.08992 17.83808s17.83808 27.136 17.83808 43.1104c0 15.95392-6.53312 31.78496-17.8176 43.08992a61.60384 61.60384 0 0 1-43.1104 17.83808c-15.9744 0-31.78496-6.53312-43.1104-17.83808a61.62432 61.62432 0 0 1-17.8176-43.08992zM20.48 506.59328c0-16.05632 6.53312-31.88736 17.83808-43.2128a61.91104 61.91104 0 0 1 43.2128-17.8176c16.09728 0 31.92832 6.51264 43.23328 17.8176 11.30496 11.32544 17.83808 27.27936 17.83808 43.2128 0 16.09728-6.53312 31.9488-17.8176 43.23328a61.91104 61.91104 0 0 1-43.23328 17.85856 61.68576 61.68576 0 0 1-43.2128-17.85856A61.91104 61.91104 0 0 1 20.48 506.61376z m0 303.7184c0-15.9744 6.53312-31.80544 17.83808-43.2128a61.91104 61.91104 0 0 1 43.2128-17.85856c16.09728 0 31.92832 6.53312 43.23328 17.83808 11.30496 11.30496 17.83808 27.25888 17.83808 43.2128 0 16.09728-6.53312 31.92832-17.8176 43.23328a61.91104 61.91104 0 0 1-43.23328 17.83808 61.68576 61.68576 0 0 1-43.2128-17.8176A61.91104 61.91104 0 0 1 20.48 810.2912zM997.02784 201.5232c0 32.1536-23.87968 58.1632-53.41184 58.1632H310.59968c-29.53216 0-53.39136-26.0096-53.39136-58.1632C257.20832 169.3696 281.06752 143.36 310.59968 143.36h633.0368c29.51168 0 53.39136 26.0096 53.39136 58.1632z m0 302.2848c0 32.0512-23.87968 58.18368-53.41184 58.18368H310.59968c-29.53216 0-53.39136-26.0096-53.39136-58.1632 0-32.1536 23.8592-58.1632 53.39136-58.1632h633.0368c29.51168-0.14336 53.39136 26.0096 53.39136 58.1632z m0 303.59552c0 32.1536-23.87968 58.1632-53.41184 58.1632H310.59968c-29.53216 0-53.39136-26.0096-53.39136-58.1632 0-32.0512 23.8592-58.0608 53.39136-58.0608h633.0368c29.51168-0.12288 53.39136 26.0096 53.39136 58.0608z"
          p-id="10465"></path>
</svg>
