<?xml version="1.0" standalone="no"?><!DOCTYPE svg PUBLIC "-//W3C//DTD SVG 1.1//EN" "http://www.w3.org/Graphics/SVG/1.1/DTD/svg11.dtd"><svg t="1782500036592" class="icon" viewBox="0 0 1024 1024" version="1.1" xmlns="http://www.w3.org/2000/svg" p-id="11280" xmlns:xlink="http://www.w3.org/1999/xlink" width="200" height="200"><path d="M869.832 690.916c0 65.695-98.311 89.458-149.097 89.458s-149.097-23.763-149.097-89.458 98.311-89.458 149.097-89.458c30.751 0 61.502 5.591 89.458 18.171L810.193 369.427 452.361 479.852l0 330.342c0 65.695-98.311 89.458-149.097 89.458s-149.097-23.763-149.097-89.458 98.311-89.458 149.097-89.458c30.751 0 61.503 5.591 89.458 18.171L392.722 288.355c0-19.569 13.046-36.809 31.684-42.865l387.65-119.277c4.193-1.398 8.387-1.864 13.047-1.864 24.693 0 44.729 20.035 44.729 44.729L869.832 690.916z" p-id="11281"></path></svg>