<?xml version="1.0" standalone="no"?><!DOCTYPE svg PUBLIC "-//W3C//DTD SVG 1.1//EN" "http://www.w3.org/Graphics/SVG/1.1/DTD/svg11.dtd"><svg t="1782529697621" class="icon" viewBox="0 0 1024 1024" version="1.1" xmlns="http://www.w3.org/2000/svg" p-id="11768" xmlns:xlink="http://www.w3.org/1999/xlink" width="200" height="200"><path d="M336.962 969.566l433.266-437.327c0.647-0.647 0.863-1.51 1.402-2.157 0.108-0.108 0.431-0.216 0.54-0.323 15.421-15.528 15.312-40.652-0.216-56.072l-437.255-433.266c-15.528-15.421-40.544-15.312-55.964 0.216-7.584 7.692-11.43 17.864-11.43 27.928 0 10.172 3.954 20.416 11.754 28.144l409.327 405.662-407.602 411.448c-7.584 7.692-11.43 17.756-11.43 27.928 0 10.28 3.954 20.416 11.754 28.144 15.312 15.42 40.437 15.204 55.856-0.323v0z" p-id="11769"></path></svg>