<?xml version="1.0" encoding="UTF-8"?>
<svg width="20px" height="20px" viewBox="0 0 20 20" version="1.1" xmlns="http://www.w3.org/2000/svg" xmlns:xlink="http://www.w3.org/1999/xlink">
    <defs>
        <linearGradient x1="16.5102332%" y1="30.4437342%" x2="100%" y2="81.062166%" id="linearGradient-1">
            <stop stop-color="#B4B5C9" offset="0%"></stop>
            <stop stop-color="#8D8FA4" offset="100%"></stop>
        </linearGradient>
    </defs>
    <g id="页面-2" stroke="none" stroke-width="1" fill-rule="evenodd" fill-opacity="0.85">
        <g id="综合监视_02" transform="translate(-24.000000, -806.000000)" fill-rule="nonzero">
            <g id="编组-15" transform="translate(0.000000, 64.000000)">
                <g id="变更管理备份-6" transform="translate(24.000000, 742.000000)">
                    <path d="M15.8452897,8.32540756 C14.2889721,5.73374227 12.367095,4.14017618 10.0231088,4.14017618 C7.70304674,4.14017618 5.69368215,5.74868387 4.20092794,8.32540756 C2.70782217,10.9021488 1.5124059,12.9649692 1.5124059,12.9649692 C0.388480808,15.601846 1.81410326,17.7595192 4.68099292,17.7595192 L15.3652071,17.7595192 C18.2315694,17.7595192 19.6575435,15.6018285 18.5337942,12.9647934 C18.5337942,12.9649692 17.4015721,10.9170904 15.8452897,8.32540756 Z M10.0229632,12.3571269 C8.72110069,12.3571269 7.66573434,11.3019759 7.66573434,10 C7.66573434,8.69801281 8.72110069,7.64287313 10.0229632,7.64287313 C11.3250637,7.64287313 12.3803281,8.69801281 12.3803281,10 C12.3803281,11.3021005 11.3250637,12.3571269 10.0229632,12.3571269 Z M1.91596985,8.16628826 C2.58756862,8.58300083 3.38587219,8.01687221 3.52609476,7.6495021 C4.44644488,5.24144276 6.7103441,3.48443309 9.44420073,3.33232755 L9.44420073,3.33376898 C9.81785505,3.30449058 10.1932228,3.30437304 10.5668953,3.33341741 C13.295373,3.49055036 15.5551061,5.24485296 16.4740324,7.64967788 C16.614255,8.01706558 17.4125586,8.58317661 18.0841573,8.16648162 C18.87833,7.67309225 19.4856447,5.8818751 18.4549552,4.41360754 C17.7453872,3.40216637 14.9465258,2.27013766 10.6412342,2.25626833 L10.6412342,2.25519605 C10.2200156,2.23557567 9.79811185,2.23557567 9.3768932,2.25519605 L9.3768932,2.25609255 C5.06061515,2.26670988 2.25600562,3.40109409 1.54499617,4.41378333 C0.51428912,5.88169931 1.12179719,7.67326804 1.91596985,8.16628826 Z" id="形状"></path>
                </g>
            </g>
        </g>
    </g>
</svg>
