<svg id="图层_1" data-name="图层 1" xmlns="http://www.w3.org/2000/svg" viewBox="0 0 18.06 17.41">
  <defs>
    <style>.cls-1{opacity:0.85;}.cls-2{fill-opacity:0.85;}</style>
  </defs>
  <path class="cls-1"
        d="M18.61,13s-1.13-2-2.69-4.64S12.44,4.19,10.1,4.19a5.16,5.16,0,0,0-2.42.63L8.75,5.89l1.88,1.87a2.39,2.39,0,0,1,1.76,1.76l6.38,6.38A3.75,3.75,0,0,0,18.61,13Z"
        transform="translate(-1.07 -1.29)"/>
  <path class="cls-1"
        d="M6.94,4.07a6.71,6.71,0,0,1,2.58-.68h0a7,7,0,0,1,1.12,0A6.74,6.74,0,0,1,16.55,7.7a1.2,1.2,0,0,0,1.61.52,2.79,2.79,0,0,0,.37-3.75c-.71-1-3.51-2.15-7.81-2.16h0c-.43,0-.85,0-1.27,0h0a20.05,20.05,0,0,0-3.91.37Z"
        transform="translate(-1.07 -1.29)"/>
  <path class="cls-1"
        d="M10.42,12.38c-.11,0-.21,0-.32,0a2.36,2.36,0,0,1-2.36-2.36c0-.11,0-.21,0-.32l-.23-.22L6.34,8.3,5.14,7.1a12,12,0,0,0-.87,1.28L1.59,13c-1.13,2.64.3,4.79,3.16,4.79H15.44l.4,0Z"
        transform="translate(-1.07 -1.29)"/>
  <path class="cls-1"
        d="M2,8.22A1.2,1.2,0,0,0,3.6,7.7a6.92,6.92,0,0,1,.75-1.39L2.06,4a2.28,2.28,0,0,0-.44.44A2.79,2.79,0,0,0,2,8.22Z"
        transform="translate(-1.07 -1.29)"/>
  <rect class="cls-2" x="9.61" y="-1.98" width="1.63" height="23.95" rx="0.82"
        transform="translate(-5.09 9.01) rotate(-45)"/>
</svg>
