<svg id="图层_1" data-name="图层 1" xmlns="http://www.w3.org/2000/svg" viewBox="0 0 18 15.52">
  <defs>
    <style>.cls-1{fill-opacity:0.85;}</style>
  </defs>
  <path class="cls-1"
        d="M1.92,8.17a1.21,1.21,0,0,0,1.61-.52A6.72,6.72,0,0,1,9.44,3.33h0a7.11,7.11,0,0,1,1.13,0,6.71,6.71,0,0,1,5.9,4.32,1.21,1.21,0,0,0,1.61.52,2.79,2.79,0,0,0,.37-3.76c-.7-1-3.5-2.14-7.81-2.15h0q-.63,0-1.26,0h0c-4.32,0-7.12,1.14-7.84,2.15A2.8,2.8,0,0,0,1.92,8.17Z"
        transform="translate(-1 -2.24)"/>
  <path class="cls-1"
        d="M11.64,14.13a3.88,3.88,0,0,1,3.87-3.88,3.83,3.83,0,0,1,1.72.42c-.4-.69-.87-1.48-1.38-2.34C14.29,5.73,12.37,4.14,10,4.14S5.69,5.75,4.2,8.33L1.51,13c-1.12,2.64.3,4.8,3.17,4.8h9.51A3.86,3.86,0,0,1,11.64,14.13ZM7.67,10A2.36,2.36,0,1,1,10,12.36,2.36,2.36,0,0,1,7.67,10Z"
        transform="translate(-1 -2.24)"/>
  <path class="cls-1"
        d="M15.56,10.84a3.24,3.24,0,1,0,3.24,3.24A3.24,3.24,0,0,0,15.56,10.84Zm-.3,1.05a.4.4,0,0,1,.31-.13.37.37,0,0,1,.31.13.4.4,0,0,1,.11.31l-.11,2.39a.39.39,0,0,1-.31.36l.08,0h-.16l.08,0a.4.4,0,0,1-.32-.36l-.11-2.39A.45.45,0,0,1,15.26,11.89Zm.31,4.5h0a.45.45,0,0,1-.4-.67.47.47,0,0,1,.4-.22.45.45,0,0,1,0,.89Z"
        transform="translate(-1 -2.24)"/>
</svg>
