<?xml version="1.0" standalone="no"?><!DOCTYPE svg PUBLIC "-//W3C//DTD SVG 1.1//EN" "http://www.w3.org/Graphics/SVG/1.1/DTD/svg11.dtd"><svg t="1782702369166" class="icon" viewBox="0 0 1024 1024" version="1.1" xmlns="http://www.w3.org/2000/svg" p-id="3671" xmlns:xlink="http://www.w3.org/1999/xlink" width="200" height="200"><path d="M66.110965 61.84036C123.164932 4.12119 192.499574-46.434254 287.777141 71.869578 405.620447 218.214283 347.798938 258.945187 281.432126 325.465508c-46.615394 46.05253 50.350766 163.48648 151.615161 264.750876 101.724921 101.315565 218.493669 197.77003 265.211402 151.666331l18.369842-18.62569 8.85232-8.852319c52.90924-51.988189 100.80387-80.029063 226.11792 21.030655 112.061156 90.314128 72.558319 157.346143 19.035046 212.711517l-9.005828 9.108167c-13.66225 13.508742-27.682687 26.352281-40.014531 38.632956-74.502759 73.991064-350.869107 3.786541-624.114116-269.560807C24.203163 452.928676-46.513055 176.40882 27.42684 101.854892c9.568692-9.568692 19.444401-20.211944 29.729466-30.906365zM792.819883 8.01007a224.122311 224.122311 0 0 1 224.122311 224.122311 224.122311 224.122311 0 1 1-224.122311-224.122311z m0 54.188477a169.933834 169.933834 0 0 0 0 339.918838 169.882665 169.882665 0 0 0 169.882665-169.985004 169.882665 169.882665 0 0 0-169.882665-169.933834z m44.312767 94.663533a17.909317 17.909317 0 0 1 9.466354 15.862538v134.780403a17.858148 17.858148 0 0 1-27.836196 14.941488l-101.571413-67.390202a17.909317 17.909317 0 0 1 0-29.934144l101.571413-67.390202a18.011656 18.011656 0 0 1 18.421012-0.869881z" p-id="3672"></path></svg>