<?xml version="1.0" standalone="no"?><!DOCTYPE svg PUBLIC "-//W3C//DTD SVG 1.1//EN" "http://www.w3.org/Graphics/SVG/1.1/DTD/svg11.dtd"><svg t="1782703003000" class="icon" viewBox="0 0 1024 1024" version="1.1" xmlns="http://www.w3.org/2000/svg" p-id="4613" xmlns:xlink="http://www.w3.org/1999/xlink" width="200" height="200"><path d="M862.040064 714.752c-132.608-107.008-169.472-54.272-229.3248 5.632-41.984 41.984-147.968-45.568-240.128-137.216-91.648-91.648-179.712-198.144-137.216-239.616 60.416-60.416 112.64-97.28 5.632-229.376C153.944064-18.432 83.288064 82.944 24.920064 141.312-42.151936 208.896 21.848064 459.264 269.656064 706.56c247.296 247.296 497.664 311.296 565.248 244.224 58.368-58.368 159.744-129.536 27.136-236.032z m-158.72-462.848h-41.984c0-73.216 0-167.936 133.1712-245.248 3.584-3.584 0-6.656-3.584-6.656-248.32 38.4-269.312 206.848-269.312 251.904h-41.984a14.1312 14.1312 0 0 0-13.824 8.192 12.8 12.8 0 0 0 4.096 15.872l100.352 125.952c4.608 6.656 12.8 10.752 20.992 10.752a26.624 26.624 0 0 0 20.992-10.752l103.936-125.44a14.336 14.336 0 0 0 2.048-14.848 15.4112 15.4112 0 0 0-12.288-9.216l-2.56-0.512z m318.464-32.768l-102.912-125.44a25.856 25.856 0 0 0-20.992-10.752c-8.192 0-15.8208 4.096-20.992 10.752l-100.352 125.44c-3.5328 4.608-4.096 10.24-2.048 14.848 2.048 4.608 6.7072 8.704 12.288 9.216h38.4c0 73.216 0 167.936-133.0688 245.248-3.584 3.584 0 6.656 3.584 6.656 248.32-38.4 269.312-206.848 269.312-251.904h41.984a15.872 15.872 0 0 0 14.336-7.68c4.096-5.12 3.584-11.264 0.512-16.384z" p-id="4614"></path></svg>